<svg width="43.000000" height="43.000000" viewBox="0 0 43 43" fill="none" xmlns="http://www.w3.org/2000/svg" xmlns:xlink="http://www.w3.org/1999/xlink">
	<desc>
			Created with Pixso.
	</desc>
	<defs>
		<clipPath id="clip2_444">
			<rect id="food-delivery" width="43.000000" height="43.000000" fill="white" fill-opacity="0"/>
		</clipPath>
	</defs>
	<rect id="food-delivery" width="43.000000" height="43.000000" fill="#FFFFFF" fill-opacity="0"/>
	<g clip-path="url(#clip2_444)">
		<path id="Vector" d="M18.9805 0C16.8965 0 15.2012 1.69531 15.2012 3.7793L15.2012 5.12305L17.7207 6.38281L18.9805 6.38281L20.2402 6.38281L22.7598 5.12305L22.7598 3.7793C22.7598 1.69531 21.0645 0 18.9805 0Z" fill="#FF6A4D" fill-opacity="1.000000" fill-rule="nonzero"/>
		<path id="Vector" d="M22.7598 5.12305L22.7598 3.7793C22.7598 1.69531 21.0645 0 18.9805 0L18.9805 6.38281L20.2402 6.38281L22.7598 5.12305Z" fill="#E64D2E" fill-opacity="1.000000" fill-rule="nonzero"/>
		<path id="Vector" d="M0 37.9609C0.583776 40.8359 3.25154 43 6.29883 43C9.34612 43 12.0979 40.8359 12.6816 37.9609L9.94476 36.7012L1.74889 36.7012L0 37.9609Z" fill="#474F54" fill-opacity="1.000000" fill-rule="nonzero"/>
		<path id="Vector" d="M6.29883 40.4805C4.21484 40.4805 2.51953 38.7852 2.51953 36.7012C2.51953 34.6172 4.21484 32.9219 6.29883 32.9219C8.38282 32.9219 10.1621 34.6172 10.1621 36.7012C10.1621 38.7852 8.38282 40.4805 6.29883 40.4805Z" fill="#F2F9FF" fill-opacity="1.000000" fill-rule="nonzero"/>
		<path id="Vector" d="M12.6816 15.2852L5.03906 15.2852L2.51953 17.8047L2.51953 25.3633L5.03906 26.623L12.6816 26.623L16.4609 25.3633L16.4609 18.5605L15.2012 17.8047L12.6816 15.2852Z" fill="#DC780B" fill-opacity="1.000000" fill-rule="nonzero"/>
		<path id="Vector" d="M2.51953 12.7656L2.51953 17.8047L15.2012 17.8047L16.4609 17.1526L15.2012 16.5449L15.2012 12.7656L2.51953 12.7656Z" fill="#FABE2C" fill-opacity="1.000000" fill-rule="nonzero"/>
		<path id="Vector" d="M20.2402 37.9609L0 37.9609L0 36.7012C0 31.8309 4.03209 27.8828 8.90234 27.8828L11.002 26.623L22.7598 26.623L22.7598 35.8613L20.2402 37.9609Z" fill="#FF6A4D" fill-opacity="1.000000" fill-rule="nonzero"/>
		<path id="Vector" d="M0 25.3633L17.7207 25.3633L17.7207 27.8828L0 27.8828L0 25.3633Z" fill="#32393F" fill-opacity="1.000000" fill-rule="nonzero"/>
		<path id="Vector" d="M26.5391 31.7375L26.5391 36.4744L25.2793 37.9609L20.2402 37.9609L20.2402 27.8828L17.7207 27.8828C16.335 27.8828 15.2012 26.749 15.2012 25.3633L15.2012 19.0645L22.7598 19.0645L22.7598 22.8438C24.1455 22.8438 25.2793 23.9775 25.2793 25.3633L25.2793 30.4023L26.5391 31.7375Z" fill="#575F64" fill-opacity="1.000000" fill-rule="nonzero"/>
		<path id="Vector" d="M26.5391 31.7375L26.5391 36.4744L25.2793 37.9609L20.2402 37.9609L20.2402 27.8828L18.9805 27.8828L18.9805 19.0645L22.7598 19.0645L22.7598 22.8438C24.1455 22.8438 25.2793 23.9775 25.2793 25.3633L25.2793 30.4023L26.5391 31.7375Z" fill="#474F54" fill-opacity="1.000000" fill-rule="nonzero"/>
		<path id="Vector" d="M22.7598 17.8047L22.7598 16.5449C22.7598 14.4609 21.0645 12.7656 18.9805 12.7656C16.8965 12.7656 15.2012 14.4609 15.2012 16.5449L15.2012 19.0645C15.2012 21.1517 16.8932 22.8438 18.9805 22.8438L29.1426 22.8438C31.2298 22.8438 32.9219 21.1517 32.9219 19.0645L32.9219 17.8047L22.7598 17.8047Z" fill="#FF6A4D" fill-opacity="1.000000" fill-rule="nonzero"/>
		<path id="Vector" d="M32.9219 19.0645L32.9219 17.8047L22.7598 17.8047L22.7598 16.5449C22.7598 14.4609 21.0645 12.7656 18.9805 12.7656L18.9805 22.8438L29.1426 22.8438C31.2298 22.8438 32.9219 21.1517 32.9219 19.0645Z" fill="#E64D2E" fill-opacity="1.000000" fill-rule="nonzero"/>
		<path id="Vector" d="M20.2402 6.38281L18.9805 6.38281L17.7207 6.38281L15.2012 7.64258L15.2012 8.90234C15.2012 10.9863 16.8965 12.7656 18.9805 12.7656C21.0645 12.7656 22.7598 10.9863 22.7598 8.90234L22.7598 7.64258L20.2402 6.38281Z" fill="#FFE1BA" fill-opacity="1.000000" fill-rule="nonzero"/>
		<path id="Vector" d="M22.7598 8.90234L22.7598 7.64258L20.2402 6.38281L18.9805 6.38281L18.9805 12.7656C21.0645 12.7656 22.7598 10.9863 22.7598 8.90234Z" fill="#FFBFAB" fill-opacity="1.000000" fill-rule="nonzero"/>
		<path id="Vector" d="M18.9805 5.12305L15.2012 5.12305L15.2012 7.64258L18.9805 7.64258L25.2793 7.64258L25.2793 5.12305L18.9805 5.12305Z" fill="#474F54" fill-opacity="1.000000" fill-rule="nonzero"/>
		<path id="Vector" d="M18.9805 5.12305L25.2793 5.12305L25.2793 7.64258L18.9805 7.64258L18.9805 5.12305Z" fill="#32393F" fill-opacity="1.000000" fill-rule="nonzero"/>
		<path id="Vector" d="M36.3936 25.645C36.2546 24.6644 35.979 22.733 35.4291 18.886L30.4023 16.5449L30.4023 26.623C30.4023 28.6104 28.6903 30.4023 26.5391 30.4023L25.2793 30.4023L25.2793 37.9609L27.7988 37.9609L40.4805 37.9609L43 36.7012L43 34.1816C43 30.1514 40.2197 26.6378 36.3936 25.645Z" fill="#E64D2E" fill-opacity="1.000000" fill-rule="nonzero"/>
		<path id="Vector" d="M37.9609 20.3242L34.1816 20.3242C32.0977 20.3242 30.4023 18.6289 30.4023 16.5449C30.4023 14.4609 32.0977 12.7656 34.1816 12.7656L37.9609 12.7656L37.9609 20.3242Z" fill="#FF6A4D" fill-opacity="1.000000" fill-rule="nonzero"/>
		<path id="Vector" d="M37.0798 30.4407L36.7134 31.8406L34.5843 30.7947C32.1547 31.6691 30.4023 33.9742 30.4023 36.7012C30.4023 40.1742 33.2282 43 36.7012 43C40.1742 43 43 40.1742 43 36.7012C43 33.3579 40.3736 30.6409 37.0798 30.4407Z" fill="#32393F" fill-opacity="1.000000" fill-rule="nonzero"/>
		<path id="Vector" d="M36.7012 32.9219C34.6172 32.9219 32.9219 34.6172 32.9219 36.7012C32.9219 38.7852 34.6172 40.4805 36.7012 40.4805C38.7852 40.4805 40.4805 38.7852 40.4805 36.7012C40.4805 34.6172 38.7852 32.9219 36.7012 32.9219Z" fill="#DFE7F4" fill-opacity="1.000000" fill-rule="nonzero"/>
		<path id="Vector" d="M37.9487 36.5228L37.0798 30.4407C36.9519 30.4329 36.8308 30.4023 36.7012 30.4023C35.9552 30.4023 35.249 30.5555 34.5844 30.7947L35.4537 36.8795L37.9487 36.5228Z" fill="#C7CFE1" fill-opacity="1.000000" fill-rule="nonzero"/>
	</g>
</svg>
