<svg width="44.945496" height="44.456787" viewBox="0 0 44.9455 44.4568" fill="none" xmlns="http://www.w3.org/2000/svg" xmlns:xlink="http://www.w3.org/1999/xlink">
	<desc>
			Created with Pixso.
	</desc>
	<defs>
		<linearGradient id="paint_linear_2_484_0" x1="2.244545" y1="2.820169" x2="19.535944" y2="8.835871" gradientUnits="userSpaceOnUse">
			<stop stop-color="#E2EDF2"/>
			<stop offset="1.000000" stop-color="#9FC7E2"/>
		</linearGradient>
		<linearGradient id="paint_linear_2_485_0" x1="3.908066" y1="1.303583" x2="6.454041" y2="2.189609" gradientUnits="userSpaceOnUse">
			<stop stop-color="#E2EDF2"/>
			<stop offset="1.000000" stop-color="#9FC7E2"/>
		</linearGradient>
		<linearGradient id="paint_linear_2_486_0" x1="9.901927" y1="9.613206" x2="11.678558" y2="11.388956" gradientUnits="userSpaceOnUse">
			<stop stop-color="#816965"/>
			<stop offset="1.000000" stop-color="#654E48"/>
		</linearGradient>
		<linearGradient id="paint_linear_2_487_0" x1="6.697612" y1="32.604675" x2="6.697612" y2="44.656864" gradientUnits="userSpaceOnUse">
			<stop stop-color="#FFE7A5"/>
			<stop offset="0.966000" stop-color="#FFBF5C"/>
		</linearGradient>
		<linearGradient id="paint_linear_2_488_0" x1="6.594066" y1="29.483122" x2="6.594066" y2="33.866539" gradientUnits="userSpaceOnUse">
			<stop stop-color="#FF5D00"/>
			<stop offset="1.000000" stop-color="#D54003"/>
		</linearGradient>
		<linearGradient id="paint_linear_2_489_0" x1="38.246914" y1="32.604675" x2="38.246914" y2="44.656864" gradientUnits="userSpaceOnUse">
			<stop stop-color="#FFE7A5"/>
			<stop offset="0.966000" stop-color="#FFBF5C"/>
		</linearGradient>
		<linearGradient id="paint_linear_2_490_0" x1="38.000130" y1="42.072105" x2="27.038054" y2="32.303276" gradientUnits="userSpaceOnUse">
			<stop stop-color="#FF5D00" stop-opacity="0.000000"/>
			<stop offset="1.000000" stop-color="#D54003"/>
		</linearGradient>
		<linearGradient id="paint_linear_2_491_0" x1="38.350471" y1="29.483122" x2="38.350471" y2="33.866539" gradientUnits="userSpaceOnUse">
			<stop stop-color="#FF5D00"/>
			<stop offset="1.000000" stop-color="#D54003"/>
		</linearGradient>
		<linearGradient id="paint_linear_2_492_0" x1="22.473999" y1="23.863268" x2="22.473999" y2="53.428848" gradientUnits="userSpaceOnUse">
			<stop stop-color="#FFE7A5"/>
			<stop offset="0.966000" stop-color="#FFBF5C"/>
			<stop offset="1.000000" stop-color="#DB9E36"/>
		</linearGradient>
		<linearGradient id="paint_linear_2_493_0" x1="19.456429" y1="14.164165" x2="11.373464" y2="6.081197" gradientUnits="userSpaceOnUse">
			<stop stop-color="#FF5D00" stop-opacity="0.000000"/>
			<stop offset="1.000000" stop-color="#D54003"/>
		</linearGradient>
		<linearGradient id="paint_linear_2_494_0" x1="23.525101" y1="31.630857" x2="20.362232" y2="11.998901" gradientUnits="userSpaceOnUse">
			<stop stop-color="#FF5D00" stop-opacity="0.000000"/>
			<stop offset="1.000000" stop-color="#D54003"/>
		</linearGradient>
		<linearGradient id="paint_linear_2_495_0" x1="19.226631" y1="38.361084" x2="6.629825" y2="25.764269" gradientUnits="userSpaceOnUse">
			<stop stop-color="#FF5D00" stop-opacity="0.000000"/>
			<stop offset="1.000000" stop-color="#D54003"/>
		</linearGradient>
		<linearGradient id="paint_linear_2_498_0" x1="34.699181" y1="36.291702" x2="26.633837" y2="28.226362" gradientUnits="userSpaceOnUse">
			<stop stop-color="#FF5D00" stop-opacity="0.000000"/>
			<stop offset="1.000000" stop-color="#D54003"/>
		</linearGradient>
		<linearGradient id="paint_linear_2_505_0" x1="1.789202" y1="40.399460" x2="6.852602" y2="45.462334" gradientUnits="userSpaceOnUse">
			<stop stop-color="#9EB644"/>
			<stop offset="1.000000" stop-color="#738611"/>
		</linearGradient>
		<linearGradient id="paint_linear_2_506_0" x1="6.197165" y1="41.513138" x2="9.870279" y2="45.186260" gradientUnits="userSpaceOnUse">
			<stop stop-color="#9EB644"/>
			<stop offset="1.000000" stop-color="#738611"/>
		</linearGradient>
		<linearGradient id="paint_linear_2_507_0" x1="37.464222" y1="39.727093" x2="43.366062" y2="45.629814" gradientUnits="userSpaceOnUse">
			<stop stop-color="#9EB644"/>
			<stop offset="1.000000" stop-color="#738611"/>
		</linearGradient>
		<linearGradient id="paint_linear_2_508_0" x1="28.887827" y1="20.306616" x2="15.974642" y2="7.393431" gradientUnits="userSpaceOnUse">
			<stop stop-color="#FF5D00" stop-opacity="0.000000"/>
			<stop offset="1.000000" stop-color="#D54003"/>
		</linearGradient>
		<linearGradient id="paint_linear_2_510_0" x1="22.472296" y1="23.497616" x2="22.472296" y2="28.110157" gradientUnits="userSpaceOnUse">
			<stop stop-color="#FF5D00"/>
			<stop offset="1.000000" stop-color="#D54003"/>
		</linearGradient>
		<linearGradient id="paint_linear_2_511_0" x1="22.472282" y1="12.603399" x2="22.472282" y2="28.262596" gradientUnits="userSpaceOnUse">
			<stop stop-color="#FF5D00"/>
			<stop offset="1.000000" stop-color="#D54003"/>
		</linearGradient>
		<linearGradient id="paint_linear_2_512_0" x1="35.940784" y1="15.383750" x2="26.475986" y2="5.919134" gradientUnits="userSpaceOnUse">
			<stop stop-color="#FF5D00" stop-opacity="0.000000"/>
			<stop offset="1.000000" stop-color="#D54003"/>
		</linearGradient>
	</defs>
	<path id="Vector" d="M3.94257 6.13599C3.51999 5.26245 3.88544 4.21179 4.75897 3.78931C5.0441 3.65137 5.34775 3.59875 5.64261 3.61902C5.92072 3.00073 6.40897 2.4729 7.06689 2.15466C8.55414 1.43506 10.3431 2.0575 11.0627 3.54468C11.2366 3.90417 11.3315 4.28125 11.3553 4.65662C12.0191 4.63452 12.6653 4.99609 12.9732 5.63245C13.3898 6.49353 13.0295 7.52917 12.1684 7.9458C11.3864 8.32422 10.4619 8.06018 9.98642 7.36389C9.88654 7.42798 9.78223 7.4873 9.6727 7.54041C8.49692 8.10925 7.133 7.83875 6.25754 6.96582C5.39047 7.36475 4.36017 6.9989 3.94257 6.13599Z" fill="url(#paint_linear_2_484_0)" fill-opacity="1.000000" fill-rule="nonzero"/>
	<path id="Vector" d="M5.85275 1.46838C5.85275 2.2793 5.19534 2.93677 4.38437 2.93677C3.57343 2.93677 2.91602 2.2793 2.91602 1.46838C2.91602 0.657471 3.57343 0 4.38437 0C5.19534 0 5.85275 0.657471 5.85275 1.46838Z" fill="url(#paint_linear_2_485_0)" fill-opacity="1.000000" fill-rule="evenodd"/>
	<path id="Vector" d="M13.1075 14.7782L9.56604 14.7782C9.06485 14.7782 8.6586 14.3719 8.6586 13.8708L8.6586 8.22205C8.6586 7.72083 9.06485 7.31458 9.56604 7.31458L13.1075 7.31458C13.6087 7.31458 14.0149 7.72083 14.0149 8.22205L14.0149 13.8708C14.015 14.3719 13.6088 14.7782 13.1075 14.7782Z" fill="url(#paint_linear_2_486_0)" fill-opacity="1.000000" fill-rule="nonzero"/>
	<path id="Vector" d="M1.41006 30.885L11.9855 30.885L11.9855 44.4568L1.41006 44.4568L1.41006 30.885Z" fill="url(#paint_linear_2_487_0)" fill-opacity="1.000000" fill-rule="evenodd"/>
	<path id="Vector" d="M12.4261 33.793L1.43378 33.793C0.983368 33.793 0.660919 33.358 0.791626 32.9269L1.88245 29.3339C1.96829 29.051 2.229 28.8578 2.5246 28.8578L12.4262 28.8578L12.4262 33.793L12.4261 33.793Z" fill="url(#paint_linear_2_488_0)" fill-opacity="1.000000" fill-rule="nonzero"/>
	<path id="Vector" d="M32.9601 30.885L43.5355 30.885L43.5355 44.4568L32.9601 44.4568L32.9601 30.885Z" fill="url(#paint_linear_2_489_0)" fill-opacity="1.000000" fill-rule="evenodd"/>
	<path id="Vector" d="M43.5354 40.901L36.4301 33.7955L32.9601 33.7955L32.9601 44.4565L43.5354 44.4565L43.5354 40.901Z" fill="url(#paint_linear_2_490_0)" fill-opacity="1.000000" fill-rule="nonzero"/>
	<path id="Vector" d="M32.5194 33.793L43.5117 33.793C43.9621 33.793 44.2846 33.358 44.1539 32.9269L43.063 29.3339C42.9772 29.051 42.7165 28.8578 42.4209 28.8578L32.5194 28.8578L32.5194 33.793Z" fill="url(#paint_linear_2_491_0)" fill-opacity="1.000000" fill-rule="nonzero"/>
	<path id="Vector" d="M36.4358 16.3768L36.4358 44.4562L8.51318 44.4562L8.51318 16.3768L22.4727 2.69043L36.4358 16.3768Z" fill="url(#paint_linear_2_492_0)" fill-opacity="1.000000" fill-rule="nonzero"/>
	<path id="Vector" d="M8.51318 16.3768L8.51318 17.9855L34.9839 44.4562L36.4358 44.4562L36.4358 16.3768L22.4727 2.69043L8.51318 16.3768Z" fill="url(#paint_linear_2_493_0)" fill-opacity="1.000000" fill-rule="nonzero"/>
	<path id="Vector" d="M36.4358 24.863L36.4358 44.4564L27.6203 44.4564L8.51318 25.3494L8.51318 24.863L36.4358 24.863Z" fill="url(#paint_linear_2_494_0)" fill-opacity="1.000000" fill-rule="nonzero"/>
	<path id="Vector" d="M32.1214 44.4565L18.4653 44.4565L10.9586 36.9498C10.6281 36.7355 10.4081 36.3638 10.4081 35.942L10.4081 29.9003C10.4081 29.2384 10.9471 28.6995 11.6089 28.6995L15.9647 28.6995C16.3874 28.6995 16.7592 28.9194 16.9734 29.2499L16.9408 29.2758L32.1214 44.4565Z" fill="url(#paint_linear_2_495_0)" fill-opacity="1.000000" fill-rule="nonzero"/>
	<path id="Vector" d="M15.9647 36.4388L11.6093 36.4388C11.3346 36.4388 11.112 36.2162 11.112 35.9415L11.112 29.9006C11.112 29.626 11.3347 29.4033 11.6093 29.4033L15.9647 29.4033C16.2394 29.4033 16.462 29.626 16.462 29.9006L16.462 35.9415C16.4621 36.2162 16.2394 36.4388 15.9647 36.4388Z" fill="#503837" fill-opacity="1.000000" fill-rule="nonzero"/>
	<path id="Vector" d="M15.9647 37.1428L11.6093 37.1428C10.947 37.1428 10.4081 36.6039 10.4081 35.9415L10.4081 29.9008C10.4081 29.2384 10.947 28.6995 11.6093 28.6995L15.9647 28.6995C16.627 28.6995 17.166 29.2384 17.166 29.9008L17.166 35.9415C17.166 36.6039 16.6271 37.1428 15.9647 37.1428ZM11.816 35.7349L15.7581 35.7349L15.7581 30.1073L11.816 30.1073L11.816 35.7349Z" fill="#FFFFFF" fill-opacity="1.000000" fill-rule="nonzero"/>
	<path id="Vector" d="M36.4368 31.1915L36.4368 44.4565L36.0083 44.4565L28.5015 36.9498C28.1701 36.7355 27.9501 36.3638 27.9501 35.942L27.9501 29.9003C27.9501 29.2384 28.489 28.6995 29.1518 28.6995L33.5067 28.6995C33.9293 28.6995 34.3011 28.9194 34.5154 29.2499L34.5327 29.2634L34.5211 29.276L36.4368 31.1915Z" fill="url(#paint_linear_2_498_0)" fill-opacity="1.000000" fill-rule="nonzero"/>
	<path id="Vector" d="M33.507 36.4388L29.1515 36.4388C28.8769 36.4388 28.6542 36.2162 28.6542 35.9415L28.6542 29.9006C28.6542 29.626 28.8769 29.4033 29.1515 29.4033L33.507 29.4033C33.7816 29.4033 34.0042 29.626 34.0042 29.9006L34.0042 35.9415C34.0043 36.2162 33.7816 36.4388 33.507 36.4388Z" fill="#503837" fill-opacity="1.000000" fill-rule="nonzero"/>
	<path id="Vector" d="M33.507 37.1428L29.1516 37.1428C28.4893 37.1428 27.9504 36.6039 27.9504 35.9415L27.9504 29.9008C27.9504 29.2384 28.4893 28.6995 29.1516 28.6995L33.507 28.6995C34.1694 28.6995 34.7083 29.2384 34.7083 29.9008L34.7083 35.9415C34.7083 36.6039 34.1694 37.1428 33.507 37.1428ZM29.3582 35.7349L33.3002 35.7349L33.3002 30.1073L29.3582 30.1073L29.3582 35.7349Z" fill="#FFFFFF" fill-opacity="1.000000" fill-rule="nonzero"/>
	<path id="Vector" d="M19.5651 44.4561L19.5651 29.2019C19.5651 28.5291 20.1105 27.9836 20.7833 27.9836L24.1662 27.9836C24.8391 27.9836 25.3845 28.5291 25.3845 29.2019L25.3845 44.4561L19.5651 44.4561Z" fill="#816965" fill-opacity="1.000000" fill-rule="nonzero"/>
	<path id="Vector" d="M26.1049 44.4561L24.6638 44.4561L24.6638 29.6173C24.6638 29.1151 24.253 28.7042 23.7508 28.7042L21.1986 28.7042C20.6943 28.7042 20.2855 29.1129 20.2855 29.6173L20.2855 44.4561L18.8445 44.4561L18.8445 28.6643C18.8445 27.8905 19.4719 27.2632 20.2457 27.2632L24.7037 27.2632C25.4775 27.2632 26.1048 27.8905 26.1048 28.6643L26.1048 44.4561L26.1049 44.4561Z" fill="#503837" fill-opacity="1.000000" fill-rule="nonzero"/>
	<path id="Vector" d="M22.0995 33.7095C22.0995 34.0723 21.8054 34.3665 21.4425 34.3665C21.0797 34.3665 20.7856 34.0723 20.7856 33.7095C20.7856 33.3467 21.0797 33.0525 21.4425 33.0525C21.8054 33.0525 22.0995 33.3467 22.0995 33.7095Z" fill="#FFFFFF" fill-opacity="1.000000" fill-rule="evenodd"/>
	<path id="Vector" d="M8.51236 40.6117L36.4368 40.6117L36.4368 44.4559L8.51236 44.4559L8.51236 40.6117Z" fill="#654E48" fill-opacity="1.000000" fill-rule="evenodd"/>
	<path id="Vector" d="M8.2066 42.9539C8.2066 43.4845 8.10626 43.9907 7.92297 44.4561L0.28363 44.4561C0.100342 43.9907 0 43.4845 0 42.9539C0 42.4373 0.0952454 41.9434 0.269684 41.4884C0.859497 39.9453 2.35358 38.8506 4.10339 38.8506C5.85318 38.8506 7.3472 39.9453 7.9371 41.4884C8.11145 41.9435 8.2066 42.4374 8.2066 42.9539Z" fill="url(#paint_linear_2_505_0)" fill-opacity="1.000000" fill-rule="nonzero"/>
	<path id="Vector" d="M10.8526 43.3665C10.8526 43.7513 10.7798 44.1185 10.6469 44.4562L5.10516 44.4562C4.97226 44.1187 4.89948 43.7513 4.89948 43.3665C4.89948 42.9917 4.96857 42.6334 5.09515 42.3035C5.52301 41.184 6.60678 40.3899 7.87616 40.3899C9.14551 40.3899 10.2293 41.184 10.6572 42.3035C10.7835 42.6334 10.8526 42.9917 10.8526 43.3665Z" fill="url(#paint_linear_2_506_0)" fill-opacity="1.000000" fill-rule="nonzero"/>
	<path id="Vector" d="M44.9455 42.7051C44.9455 43.3235 44.8285 43.9137 44.6149 44.4561L35.7097 44.4561C35.4962 43.9138 35.3791 43.3235 35.3791 42.7051C35.3791 42.1029 35.4902 41.5272 35.6935 40.9968C36.3811 39.198 38.1227 37.9219 40.1623 37.9219C42.202 37.9219 43.9435 39.198 44.6311 40.9968C44.8344 41.5272 44.9455 42.1029 44.9455 42.7051Z" fill="url(#paint_linear_2_507_0)" fill-opacity="1.000000" fill-rule="nonzero"/>
	<path id="Vector" d="M36.4358 20.3937L36.4358 35.2759L18.4744 17.3136C18.1218 17.1012 17.8848 16.7161 17.8848 16.2755L17.8848 12.901C17.8848 10.3717 19.9435 8.31396 22.4727 8.31396C23.8423 8.31396 25.0735 8.91858 25.915 9.87292L36.4358 20.3937Z" fill="url(#paint_linear_2_508_0)" fill-opacity="1.000000" fill-rule="nonzero"/>
	<path id="Vector" d="M34.3895 18.9458L10.9179 18.9458C10.3582 18.9458 9.90292 19.4011 9.90292 19.9608L9.90292 24.467L10.6079 24.467L10.6079 19.9608C10.6079 19.7898 10.747 19.6508 10.9179 19.6508L12.3219 19.6508L12.3219 24.4669L13.0269 24.4669L13.0269 19.6508L15.1213 19.6508L15.1213 24.4669L15.8263 24.4669L15.8263 19.6508L17.9208 19.6508L17.9208 24.4669L18.6258 24.4669L18.6258 19.6508L20.7202 19.6508L20.7202 24.4669L21.4252 24.4669L21.4252 19.6508L23.5197 19.6508L23.5197 24.4669L24.2247 24.4669L24.2247 19.6508L26.3192 19.6508L26.3192 24.4669L27.0242 24.4669L27.0242 19.6508L29.1186 19.6508L29.1186 24.4669L29.8236 24.4669L29.8236 19.6508L31.9181 19.6508L31.9181 24.4669L32.623 24.4669L32.623 19.6508L34.3891 19.6508C34.56 19.6508 34.6991 19.7898 34.6991 19.9608L34.6991 24.467L35.4041 24.467L35.4041 19.9608C35.4044 19.4011 34.9491 18.9458 34.3895 18.9458Z" fill="#654E48" fill-opacity="1.000000" fill-rule="nonzero"/>
	<path id="Vector" d="M37.0146 23.7355L37.0146 25.9958C37.0146 26.3318 36.7423 26.6041 36.4063 26.6041L8.53922 26.6041C8.20328 26.6041 7.93097 26.3318 7.93097 25.9958L7.93097 23.7355C7.93097 23.3995 8.20328 23.1272 8.53922 23.1272L36.4063 23.1272C36.7423 23.1272 37.0146 23.3995 37.0146 23.7355Z" fill="url(#paint_linear_2_510_0)" fill-opacity="1.000000" fill-rule="nonzero"/>
	<path id="Vector" d="M41.435 18.8248L23.4055 0.789307C22.8917 0.275513 22.0584 0.275513 21.5445 0.789307L3.5105 18.8232C3.17429 19.1595 3.17429 19.7046 3.5105 20.0408L4.27905 20.8093C4.61526 21.1455 5.16031 21.1455 5.49652 20.8093L22.2299 4.07593C22.3652 3.94067 22.5846 3.94067 22.7199 4.07593L39.4489 20.8107C39.7851 21.147 40.3302 21.147 40.6664 20.8107L41.4349 20.0422C41.7712 19.7061 41.7712 19.161 41.435 18.8248Z" fill="url(#paint_linear_2_511_0)" fill-opacity="1.000000" fill-rule="nonzero"/>
	<path id="Vector" d="M23.4055 0.789429C23.1486 0.532471 22.8119 0.404053 22.475 0.404053L22.475 3.97473C22.5637 3.97473 22.6524 4.00854 22.72 4.07617L39.449 20.811C39.7852 21.1472 40.3303 21.1472 40.6665 20.811L41.435 20.0425C41.7712 19.7062 41.7712 19.1611 41.435 18.825L23.4055 0.789429Z" fill="url(#paint_linear_2_512_0)" fill-opacity="1.000000" fill-rule="nonzero"/>
	<path id="Vector" d="M25.8466 16.7567L19.099 16.7567C18.833 16.7567 18.6174 16.541 18.6174 16.275L18.6174 12.9012C18.6174 10.7719 20.3436 9.04565 22.4729 9.04565C24.6023 9.04565 26.3285 10.7719 26.3285 12.9012L26.3285 16.275C26.3283 16.541 26.1125 16.7567 25.8466 16.7567Z" fill="#654E48" fill-opacity="1.000000" fill-rule="nonzero"/>
	<path id="Vector" d="M22.4728 8.31372C19.9432 8.31372 17.8853 10.3717 17.8853 12.9012L17.8853 16.2749C17.8853 16.9443 18.4297 17.4888 19.0991 17.4888L25.8466 17.4888C26.5159 17.4888 27.0604 16.9443 27.0604 16.2749L27.0604 12.9012C27.0603 10.3717 25.0024 8.31372 22.4728 8.31372ZM25.5709 12.5109L23.2049 12.5109L23.2049 9.86536C24.4516 10.166 25.4087 11.2163 25.5709 12.5109ZM21.7407 9.86536L21.7407 12.5109L19.3746 12.5109C19.5368 11.2163 20.4938 10.166 21.7407 9.86536ZM19.3493 13.975L21.7407 13.975L21.7407 16.0248L19.3493 16.0248L19.3493 13.975ZM23.2049 16.0248L23.2049 13.975L25.5962 13.975L25.5962 16.0248L23.2049 16.0248Z" fill="#FFFFFF" fill-opacity="1.000000" fill-rule="nonzero"/>
</svg>
