<svg width="52.000000" height="52.000000" viewBox="0 0 52 52" fill="none" xmlns="http://www.w3.org/2000/svg" xmlns:xlink="http://www.w3.org/1999/xlink">
	<desc>
			Created with Pixso.
	</desc>
	<defs/>
	<path id="Vector" d="M26.2825 0.0020752L26.2825 51.9979C40.5118 51.8472 52 40.2649 52 26C52 11.735 40.5118 0.15271 26.2825 0.0020752Z" fill="#FFBB54" fill-opacity="1.000000" fill-rule="nonzero"/>
	<path id="Vector" d="M26.2825 0.0020752C26.1883 0.00109863 26.0942 0 26 0C11.6409 0 0 11.6409 0 26C0 40.3591 11.6409 52 26 52C26.0942 52 26.1883 51.9989 26.2825 51.9979C38.1996 51.818 47.8149 40.2472 47.8149 26C47.8149 11.7528 38.1996 0.182007 26.2825 0.0020752Z" fill="#FFD45A" fill-opacity="1.000000" fill-rule="nonzero"/>
	<path id="Vector" d="M36.3058 22.8821L26.1328 35.8821L36.5841 35.8821C38.3763 33.598 39.4446 30.7188 39.4446 27.5903L39.4446 26.0209C39.4446 24.2946 38.0321 22.8821 36.3058 22.8821Z" fill="#B74147" fill-opacity="1.000000" fill-rule="nonzero"/>
	<path id="Vector" d="M15.6941 22.8821C13.9678 22.8821 12.5553 24.2946 12.5553 26.0209L12.5553 27.5903C12.5553 30.7188 13.6235 33.598 15.4158 35.8821L34.9865 34.1746C35.8266 32.2285 36.3058 29.9822 36.3058 27.5903L36.3058 26.0212L15.6941 22.8821Z" fill="#FF3C1F" fill-opacity="1.000000" fill-rule="nonzero"/>
	<path id="Vector" d="M34.9864 34.1746L26.1328 41.0339C30.3755 40.9932 34.1473 38.9874 36.5841 35.8821C36.1017 35.2679 35.5671 34.6956 34.9864 34.1746Z" fill="#FA4087" fill-opacity="1.000000" fill-rule="nonzero"/>
	<path id="Vector" d="M34.9865 34.1746C33.2413 38.2225 29.9351 40.9712 26.1329 41.0339C26.089 41.0349 26.044 41.0349 26 41.0349C21.703 41.0349 17.8778 39.0198 15.4159 35.8821C17.8778 32.7454 21.703 30.7291 26 30.7291C29.4548 30.7291 32.6052 32.0328 34.9865 34.1746Z" fill="#FA71A3" fill-opacity="1.000000" fill-rule="nonzero"/>
	<path id="Vector" d="M33.1671 22.8821L31.5977 27.5903L34.7365 27.5903C35.5997 27.5903 36.3059 26.884 36.3059 26.0209L36.3059 22.8821L33.1671 22.8821Z" fill="#FFF7DF" fill-opacity="1.000000" fill-rule="nonzero"/>
	<path id="Vector" d="M33.1669 22.8821L33.1669 26.0209C33.1669 26.884 32.4607 27.5903 31.5975 27.5903L17.2635 27.5903C16.4003 27.5903 15.6941 26.884 15.6941 26.0209L15.6941 22.8821L33.1669 22.8821Z" fill="#FFFFFF" fill-opacity="1.000000" fill-rule="nonzero"/>
	<path id="Vector" d="M26.7848 44.959L25.2154 44.959C24.7819 44.959 24.4307 44.6075 24.4307 44.1742C24.4307 43.7408 24.7819 43.3895 25.2154 43.3895L26.7848 43.3895C27.2183 43.3895 27.5695 43.7408 27.5695 44.1742C27.5695 44.6075 27.2183 44.959 26.7848 44.959Z" fill="#FFBB54" fill-opacity="1.000000" fill-rule="nonzero"/>
	<path id="Vector" d="M34.7364 11.8962C33.8732 11.8962 33.167 12.6024 33.167 13.4657L33.167 18.174C33.167 19.0371 33.8732 19.7433 34.7364 19.7433C35.5996 19.7433 36.3058 19.0371 36.3058 18.174L36.3058 13.4657C36.3058 12.6024 35.5996 11.8962 34.7364 11.8962Z" fill="#474867" fill-opacity="1.000000" fill-rule="nonzero"/>
	<path id="Vector" d="M17.2635 11.8972C16.4003 11.8972 15.6941 12.6034 15.6941 13.4667L15.6941 18.1749C15.6941 19.0381 16.4003 19.7443 17.2635 19.7443C18.1267 19.7443 18.8329 19.0381 18.8329 18.1749L18.8329 13.4667C18.8329 12.6034 18.1267 11.8972 17.2635 11.8972Z" fill="#474867" fill-opacity="1.000000" fill-rule="nonzero"/>
</svg>
